<svg id="Euro_Region_Banner_Header" data-name="Euro Region Banner Header" xmlns="http://www.w3.org/2000/svg" xmlns:xlink="http://www.w3.org/1999/xlink" width="1800" height="201" viewBox="0 0 1800 201">
  <defs>
    <clipPath id="clip-path">
      <path id="Path_466" data-name="Path 466" d="M0,0H1800V191.112H0Z" fill="#fff"/>
    </clipPath>
  </defs>
  <path id="Path_286" data-name="Path 286" d="M0,0H1800V200H0Z" transform="translate(0 1)" fill="#fff"/>
  <g id="PSI_Cubiks_RGB" transform="translate(40.278 39.496)">
    <g id="Cubiks" transform="translate(195.737 20.96)">
      <path id="Path_296" data-name="Path 296" d="M1134.1,119.75c-.133-1.786-1.026-2.58-2.978-2.58s-3.275.893-3.275,2.216c0,1.588,1.72,2.779,5.326,3.738,5.624,1.588,7.41,2.283,9.163,3.937a8.766,8.766,0,0,1,2.977,7.145c0,6.517-6.318,11.644-14.423,11.644-7.708,0-13.033-4.433-13.794-11.512h10.321c.265,2.018,1.654,3.11,3.871,3.11,2.018,0,3.606-1.191,3.606-2.713,0-1.257-.959-2.283-2.912-3.043a6.3,6.3,0,0,0-1.125-.331l-2.018-.562-2.018-.5-2.018-.562a9.976,9.976,0,0,1-7.41-9.56c0-6.318,6.252-11.38,13.993-11.38,7.344,0,12.207,4.168,12.835,10.883Z" transform="translate(-946.669 -97.42)" fill="#002a4e"/>
      <path id="Path_297" data-name="Path 297" d="M1061.847,114h12.008l-12.8,14.82,12.471,19.054H1061.98l-11.38-19.385Z" transform="translate(-902.168 -100.9)" fill="#002a4e"/>
      <rect id="Rectangle_131" data-name="Rectangle 131" width="10.023" height="45.419" transform="translate(138.277 1.522)" fill="#002a4e"/>
      <rect id="Rectangle_132" data-name="Rectangle 132" width="10.023" height="31.559" transform="translate(125.177 15.382)" fill="#002a4e"/>
      <g id="Group_814" data-name="Group 814" transform="translate(123.953 1.323)">
        <g id="Group_813" data-name="Group 813">
          <path id="Path_298" data-name="Path 298" d="M988.377,84.288a5.888,5.888,0,1,1-5.888-5.888h0a5.859,5.859,0,0,1,5.888,5.888" transform="translate(-976.6 -78.4)" fill="#002a4e"/>
        </g>
      </g>
      <path id="Path_299" data-name="Path 299" d="M879.015,88.99a12.782,12.782,0,0,0-9.792,3.87V79H859.2v45.419h5.392v-.926c0-4,3.9-7.41,9.263-8.5a8.029,8.029,0,0,1-4.565-5.954,8.392,8.392,0,1,1,11.777,5.921c4.433.827,7.906,3.209,9.1,6.252,3.705-3.275,5.922-8.27,5.922-14.291,0-10.387-7.079-17.93-16.772-17.93" transform="translate(-774.084 -77.478)" fill="#002a4e"/>
      <path id="Path_300" data-name="Path 300" d="M783.859,147.874h-9.229v-3.606c-1.588,3.176-4.565,4.73-8.932,4.73a13.042,13.042,0,0,1-10.288-4.267c-2.415-2.713-3.11-5.161-3.11-10.486V114h10.023v18.955c0,4.7,1.687,6.649,5.591,6.649,3.771,0,5.954-2.448,5.954-6.649V114h10.023v33.874Z" transform="translate(-702.547 -100.9)" fill="#002a4e"/>
      <path id="Path_301" data-name="Path 301" d="M648.576,103.643a23.1,23.1,0,0,1-22.726,17.8c-13.431,0-23.95-10.387-23.95-23.553A23.386,23.386,0,0,1,625.188,74.4h.066a23.672,23.672,0,0,1,19.187,9.064,20.88,20.88,0,0,1,4.433,9.428h-12.7a11.241,11.241,0,0,0-10.751-7.708c-6.583,0-11.644,5.591-11.644,12.8,0,7.377,5.127,13,11.777,13,4.664,0,8.2-2.481,10.586-7.377h12.438Z" transform="translate(-601.899 -74.4)" fill="#002a4e"/>
    </g>
    <path id="Path_302" data-name="Path 302" d="M548.264,237.2c-3.242,14.423-12.736,27.391-26.464,37.513H746.979V237.2Z" transform="translate(-352.56 -162.753)" fill="#9e0442"/>
    <g id="PSI">
      <path id="Path_303" data-name="Path 303" d="M10.2,76.749c0,23.718,16.309,44.472,40.788,56.133-20.311-11.958-33.411-30.768-33.411-51.917,0-36.137,38.208-65.423,85.348-65.423,22.362,0,42.74,6.621,57.957,17.426C145.1,19.3,122.045,10.7,96.375,10.7,48.772,10.667,10.2,40.249,10.2,76.749Z" transform="translate(-10.2 -10.667)" fill="#9e0442"/>
      <path id="Path_304" data-name="Path 304" d="M222.693,10.6C243,22.558,256.1,41.368,256.1,62.517c0,36.138-38.208,65.423-85.348,65.423-22.362,0-42.74-6.588-57.957-17.393,15.779,13.671,38.836,22.3,64.507,22.3,47.6,0,86.175-29.582,86.175-66.049,0-23.784-16.309-44.571-40.788-56.2Z" transform="translate(-78.859 -10.6)" fill="#9e0442"/>
      <path id="Path_305" data-name="Path 305" d="M180.381,170.221c-2.316,2.216-5.425,3.341-9.428,3.341-3.937,0-7.112-1.125-9.428-3.341s-3.473-5.293-3.473-9.263c0-3.937,1.158-7.013,3.473-9.263s5.458-3.341,9.428-3.341,7.112,1.125,9.428,3.341,3.473,5.293,3.473,9.263c-.033,3.937-1.191,7.013-3.473,9.263ZM171.614,142.5c-5.69,0-10.222,2.018-13.6,6.12v-5.227H151.7v47.57h6.318v-17.7a17.183,17.183,0,0,0,13.53,6.054c5.591,0,10.123-1.687,13.629-5.061s5.26-7.807,5.26-13.331-1.753-9.99-5.26-13.365c-3.473-3.374-8.005-5.061-13.563-5.061Z" transform="translate(-104.891 -99.168)" fill="#002a4e"/>
      <path id="Path_306" data-name="Path 306" d="M313.559,160.422c-1.621-1.191-4.267-2.051-7.906-2.646l-7.642-1.257a28.882,28.882,0,0,1-5.061-1.125c-1.886-.794-2.845-2.051-2.845-3.771,0-3.143,3.01-4.731,9.064-4.731,6.352,0,9.726,2.117,10.156,6.385h6.186v-.265a9.836,9.836,0,0,0-5.127-9.2c-2.713-1.555-6.352-2.316-10.883-2.316-10.52,0-15.812,3.771-15.812,11.247a7.773,7.773,0,0,0,3.87,7.212c1.588.926,4.4,1.72,8.469,2.415l7.84,1.356A20.122,20.122,0,0,1,308,164.789a3.435,3.435,0,0,1,2.183,3.275c0,3.54-3.639,5.326-10.95,5.326-6.219,0-9.659-2.349-10.255-7.013H282q1.191,12.653,17.235,12.67a26.729,26.729,0,0,0,11.545-2.15c3.97-1.919,5.954-4.962,5.954-9.2.1-3.275-.992-5.69-3.176-7.278Z" transform="translate(-192.087 -98.459)" fill="#002a4e"/>
      <path id="Path_307" data-name="Path 307" d="M408.8,180.2h6.318V145.1H408.8Z" transform="translate(-276.941 -100.867)" fill="#002a4e"/>
      <path id="Path_308" data-name="Path 308" d="M408.8,115.641h6.318V107.9H408.8Z" transform="translate(-276.941 -75.856)" fill="#002a4e"/>
    </g>
    <g id="a_psi_business" transform="translate(202.155 79.905)">
      <path id="Path_309" data-name="Path 309" d="M636.848,271.5v14.952h-1.886v-2.58a8.108,8.108,0,0,1-2.713,2.216,7.209,7.209,0,0,1-3.275.728,7.283,7.283,0,0,1-5.425-2.316,7.74,7.74,0,0,1-2.25-5.591,7.643,7.643,0,0,1,2.25-5.524,7.4,7.4,0,0,1,5.458-2.283,7.018,7.018,0,0,1,3.341.794,7.6,7.6,0,0,1,2.613,2.349V271.5h1.886Zm-7.675,1.489a5.9,5.9,0,0,0-2.977.794,5.548,5.548,0,0,0-2.15,2.216,6.1,6.1,0,0,0,0,6.021,5.715,5.715,0,0,0,2.183,2.249,5.784,5.784,0,0,0,2.944.794,6.009,6.009,0,0,0,5.161-2.944,6.2,6.2,0,0,0,.761-3.043,5.885,5.885,0,0,0-1.72-4.334A5.5,5.5,0,0,0,629.173,272.986Z" transform="translate(-621.3 -265.344)" fill="#fff"/>
      <path id="Path_310" data-name="Path 310" d="M705.333,271.5h1.919v2.746a7.6,7.6,0,0,1,2.613-2.349,6.887,6.887,0,0,1,3.308-.794,7.737,7.737,0,0,1,7.708,7.807,7.74,7.74,0,0,1-2.25,5.591,7.353,7.353,0,0,1-5.425,2.316,7.208,7.208,0,0,1-3.275-.728,8.447,8.447,0,0,1-2.713-2.216v8.039H705.3V271.5Zm7.675,1.489a5.668,5.668,0,0,0-4.2,1.753,6.017,6.017,0,0,0-1.72,4.334,6.2,6.2,0,0,0,.761,3.043,5.464,5.464,0,0,0,2.183,2.15,6.086,6.086,0,0,0,2.977.794,5.666,5.666,0,0,0,2.911-.794,6.2,6.2,0,0,0,2.183-2.249,6.1,6.1,0,0,0,0-6.021,5.774,5.774,0,0,0-2.15-2.216A5.7,5.7,0,0,0,713.008,272.986Z" transform="translate(-677.512 -265.344)" fill="#fff"/>
      <path id="Path_311" data-name="Path 311" d="M768.1,273.4l-1.224,1.29a4.418,4.418,0,0,0-3.01-1.489,2.144,2.144,0,0,0-1.588.629,1.938,1.938,0,0,0-.662,1.456,2.133,2.133,0,0,0,.563,1.389,7.661,7.661,0,0,0,2.316,1.588,8.23,8.23,0,0,1,2.911,2.15,3.983,3.983,0,0,1,.761,2.349,4.221,4.221,0,0,1-1.29,3.109,4.415,4.415,0,0,1-3.242,1.29,5.907,5.907,0,0,1-2.481-.562,5.292,5.292,0,0,1-1.952-1.555l1.224-1.389a4.251,4.251,0,0,0,3.11,1.654,2.752,2.752,0,0,0,1.952-.728,2.382,2.382,0,0,0,.827-1.753,2.137,2.137,0,0,0-.529-1.456,8.216,8.216,0,0,0-2.415-1.588,7.924,7.924,0,0,1-2.746-2.051,4.017,4.017,0,0,1,.43-5.127A3.99,3.99,0,0,1,764,271.48,5.479,5.479,0,0,1,768.1,273.4Z" transform="translate(-713.582 -265.592)" fill="#fff"/>
      <path id="Path_312" data-name="Path 312" d="M795.455,253.7a1.581,1.581,0,0,1,1.588,1.588,1.633,1.633,0,0,1-.463,1.125,1.575,1.575,0,0,1-1.125.463,1.5,1.5,0,0,1-1.092-.463,1.6,1.6,0,0,1,0-2.249A1.5,1.5,0,0,1,795.455,253.7Zm-.959,6.153h1.919v14.952H794.5Z" transform="translate(-736.803 -253.7)" fill="#fff"/>
      <path id="Path_313" data-name="Path 313" d="M837.9,275.608V254.9h1.919v8.336a8.108,8.108,0,0,1,2.713-2.216,7.209,7.209,0,0,1,3.275-.728,7.283,7.283,0,0,1,5.425,2.316,7.99,7.99,0,0,1,0,11.115,7.4,7.4,0,0,1-5.458,2.283,6.887,6.887,0,0,1-3.308-.794,7.6,7.6,0,0,1-2.613-2.349v2.746Zm7.675-1.456a5.7,5.7,0,0,0,2.944-.794,5.774,5.774,0,0,0,2.15-2.216,6.116,6.116,0,0,0,.794-3.01,6.239,6.239,0,0,0-.794-3.043,5.829,5.829,0,0,0-5.094-3.043,5.9,5.9,0,0,0-2.977.794,5.465,5.465,0,0,0-2.183,2.15,6.236,6.236,0,0,0-.761,3.077,5.885,5.885,0,0,0,1.72,4.333A5.72,5.72,0,0,0,845.575,274.153Z" transform="translate(-766.248 -254.503)" fill="#fff"/>
      <path id="Path_314" data-name="Path 314" d="M894.9,272.3h1.919v6.98a16.076,16.076,0,0,0,.265,3.507,3.8,3.8,0,0,0,1.588,2.183,4.745,4.745,0,0,0,2.779.794A4.871,4.871,0,0,0,904.2,285a3.988,3.988,0,0,0,1.555-2.051,13.871,13.871,0,0,0,.3-3.672V272.3H908v7.344a11.435,11.435,0,0,1-.728,4.664,5.412,5.412,0,0,1-2.183,2.448,7.859,7.859,0,0,1-7.278,0,5.692,5.692,0,0,1-2.183-2.481,11.757,11.757,0,0,1-.728-4.764Z" transform="translate(-804.392 -266.147)" fill="#fff"/>
      <path id="Path_315" data-name="Path 315" d="M952.2,273.4l-1.224,1.29a4.417,4.417,0,0,0-3.01-1.489,2.144,2.144,0,0,0-1.588.629,1.939,1.939,0,0,0-.662,1.456,2.133,2.133,0,0,0,.562,1.389,7.661,7.661,0,0,0,2.316,1.588,8.23,8.23,0,0,1,2.911,2.15,3.983,3.983,0,0,1,.761,2.349,4.22,4.22,0,0,1-1.29,3.109,4.413,4.413,0,0,1-3.242,1.29,5.907,5.907,0,0,1-2.481-.562,5.292,5.292,0,0,1-1.952-1.555l1.224-1.389a4.251,4.251,0,0,0,3.11,1.654,2.751,2.751,0,0,0,1.952-.728,2.381,2.381,0,0,0,.827-1.753,2.138,2.138,0,0,0-.529-1.456,8.213,8.213,0,0,0-2.415-1.588,7.921,7.921,0,0,1-2.746-2.051,4.016,4.016,0,0,1,.43-5.127,3.99,3.99,0,0,1,2.944-1.125A5.479,5.479,0,0,1,952.2,273.4Z" transform="translate(-836.781 -265.592)" fill="#fff"/>
      <path id="Path_316" data-name="Path 316" d="M979.555,253.7a1.581,1.581,0,0,1,1.588,1.588,1.635,1.635,0,0,1-.463,1.125,1.575,1.575,0,0,1-1.125.463,1.5,1.5,0,0,1-1.092-.463,1.6,1.6,0,0,1,0-2.249A1.5,1.5,0,0,1,979.555,253.7Zm-.959,6.153h1.919v14.952H978.6Z" transform="translate(-860.002 -253.7)" fill="#fff"/>
      <path id="Path_317" data-name="Path 317" d="M997.8,271.5h1.919v2.68a8.329,8.329,0,0,1,2.547-2.316,6.388,6.388,0,0,1,3.043-.761,5.328,5.328,0,0,1,2.977.86,5.179,5.179,0,0,1,1.919,2.283,12.387,12.387,0,0,1,.629,4.5v7.675h-1.919v-7.079a18.711,18.711,0,0,0-.2-3.44,3.794,3.794,0,0,0-1.29-2.216,3.894,3.894,0,0,0-2.481-.761,4.708,4.708,0,0,0-3.11,1.158,5.376,5.376,0,0,0-1.819,2.845,18.851,18.851,0,0,0-.265,4.069v5.491h-1.919V271.5Z" transform="translate(-873.252 -265.344)" fill="#fff"/>
      <path id="Path_318" data-name="Path 318" d="M1061,281.554l1.621.86a8.419,8.419,0,0,1-1.852,2.514,7.541,7.541,0,0,1-2.349,1.456,8.2,8.2,0,0,1-2.944.5,7.179,7.179,0,0,1-5.723-2.382,8.191,8.191,0,0,1-.3-10.486,7.126,7.126,0,0,1,5.921-2.812,7.3,7.3,0,0,1,6.087,2.911,8.107,8.107,0,0,1,1.654,5.094h-13.43a6.175,6.175,0,0,0,1.654,4.267,5.2,5.2,0,0,0,3.97,1.654,6.4,6.4,0,0,0,2.216-.4,5.733,5.733,0,0,0,1.819-1.059A8.848,8.848,0,0,0,1061,281.554Zm0-4a6.228,6.228,0,0,0-1.125-2.448,5.657,5.657,0,0,0-1.952-1.489,6.091,6.091,0,0,0-2.547-.562,5.413,5.413,0,0,0-3.771,1.422,6.567,6.567,0,0,0-1.753,3.077Z" transform="translate(-906.645 -265.411)" fill="#fff"/>
      <path id="Path_319" data-name="Path 319" d="M1110,273.4l-1.224,1.29a4.416,4.416,0,0,0-3.01-1.489,2.144,2.144,0,0,0-1.588.629,1.939,1.939,0,0,0-.661,1.456,2.133,2.133,0,0,0,.562,1.389,7.664,7.664,0,0,0,2.316,1.588,8.228,8.228,0,0,1,2.911,2.15,3.984,3.984,0,0,1,.761,2.349,4.219,4.219,0,0,1-1.29,3.109,4.413,4.413,0,0,1-3.241,1.29,5.905,5.905,0,0,1-2.481-.562,5.291,5.291,0,0,1-1.952-1.555l1.224-1.389a4.251,4.251,0,0,0,3.11,1.654,2.752,2.752,0,0,0,1.952-.728,2.382,2.382,0,0,0,.827-1.753,2.137,2.137,0,0,0-.53-1.456,8.209,8.209,0,0,0-2.415-1.588,7.924,7.924,0,0,1-2.746-2.051,4.017,4.017,0,0,1,.43-5.127,3.99,3.99,0,0,1,2.944-1.125A5.479,5.479,0,0,1,1110,273.4Z" transform="translate(-942.38 -265.592)" fill="#fff"/>
      <path id="Path_320" data-name="Path 320" d="M1143.1,273.4l-1.224,1.29a4.417,4.417,0,0,0-3.01-1.489,2.144,2.144,0,0,0-1.588.629,1.939,1.939,0,0,0-.662,1.456,2.133,2.133,0,0,0,.563,1.389,7.659,7.659,0,0,0,2.316,1.588,8.231,8.231,0,0,1,2.911,2.15,3.982,3.982,0,0,1,.761,2.349,4.22,4.22,0,0,1-1.29,3.109,4.413,4.413,0,0,1-3.242,1.29,5.9,5.9,0,0,1-2.481-.562,5.291,5.291,0,0,1-1.952-1.555l1.224-1.389a4.251,4.251,0,0,0,3.109,1.654,2.752,2.752,0,0,0,1.952-.728,2.382,2.382,0,0,0,.827-1.753,2.138,2.138,0,0,0-.529-1.456,8.214,8.214,0,0,0-2.415-1.588,7.928,7.928,0,0,1-2.746-2.051,4.017,4.017,0,0,1,.43-5.127A3.99,3.99,0,0,1,1139,271.48,5.48,5.48,0,0,1,1143.1,273.4Z" transform="translate(-964.53 -265.592)" fill="#fff"/>
    </g>
  </g>
  <g id="Component_96_3" data-name="Component 96 – 3">
    <g id="Group_27" data-name="Group 27" clip-path="url(#clip-path)">
      <g id="Group_854" data-name="Group 854" transform="translate(455.266 -654.551)">
        <g id="Group_853" data-name="Group 853" transform="translate(0 11.913)">
          <g id="Group_807" data-name="Group 807">
            <g id="Group_806" data-name="Group 806">
              <path id="Path_295" data-name="Path 295" d="M9,157.364,190.806-846H295.255l0,1003.364Z" transform="translate(-9 846)" fill="#002a4e"/>
            </g>
          </g>
        </g>
        <rect id="Rectangle_156" data-name="Rectangle 156" width="1112.691" height="1015.481" transform="translate(248.436)" fill="#002a4e"/>
      </g>
    </g>
  </g>
  <rect id="Rectangle_207" data-name="Rectangle 207" width="1800" height="10" transform="translate(0 191)" fill="#e1eef9"/>
</svg>
